<?xml version="1.0" encoding="UTF-8"?>
<svg width="442.28" height="64" version="1.1" viewBox="0 0 117.02 16.933" xmlns="http://www.w3.org/2000/svg">
<g transform="translate(-43.92 -65.474)">
<path d="m46.851 65.474c0.54138 0 0.97692 0.43758 0.97692 0.97692v1.9538c0 0.54138-0.43554 0.97692-0.97692 0.97692h-1.9538c-0.53934 0-0.97692-0.43554-0.97692-0.97692v-1.9538c0-0.53934 0.43758-0.97692 0.97692-0.97692zm15.956 0.65128c0.72048 0 1.3026 0.5833 1.3026 1.3026 0 0.72048-0.58208 1.3026-1.3026 1.3026h-11.723c-0.72048 0-1.3026-0.58208-1.3026-1.3026 0-0.71926 0.58208-1.3026 1.3026-1.3026zm0 6.5128c0.72048 0 1.3026 0.58208 1.3026 1.3026 0 0.72048-0.58208 1.3026-1.3026 1.3026h-11.723c-0.72048 0-1.3026-0.58208-1.3026-1.3026 0-0.72048 0.58208-1.3026 1.3026-1.3026zm0 6.5128c0.72048 0 1.3026 0.58208 1.3026 1.3026 0 0.72048-0.58208 1.3026-1.3026 1.3026h-11.723c-0.72048 0-1.3026-0.58208-1.3026-1.3026 0-0.72048 0.58208-1.3026 1.3026-1.3026zm-18.887-6.1872c0-0.54138 0.43758-0.97692 0.97692-0.97692h1.9538c0.54138 0 0.97692 0.43554 0.97692 0.97692v1.9538c0 0.54138-0.43554 0.97692-0.97692 0.97692h-1.9538c-0.53934 0-0.97692-0.43554-0.97692-0.97692zm2.9308 5.5359c0.54138 0 0.97692 0.43555 0.97692 0.97692v1.9538c0 0.54138-0.43554 0.97692-0.97692 0.97692h-1.9538c-0.53934 0-0.97692-0.43555-0.97692-0.97692v-1.9538c0-0.54138 0.43758-0.97692 0.97692-0.97692z" fill="#0ea5e9" stroke-width=".040705"/>
<text x="68.736382" y="78.787949" fill="#000000" font-family="sans-serif" font-size="17.524px" stroke-width=".43809" style="line-height:1.25" xml:space="preserve"><tspan x="68.736382" y="78.787949" stroke-width=".43809">Things<tspan fill="#0ea5e9">2</tspan>Do</tspan></text>
</g>
</svg>
